<svg xmlns="http://www.w3.org/2000/svg" viewBox="0 0 32 32"><g data-name="Layer 2"><path fill="#bbf" d="M9.807,8.343,4.181,14.671a2,2,0,0,0,0,2.658l5.626,6.328A4,4,0,0,0,12.8,25H27a2,2,0,0,0,2-2V9a2,2,0,0,0-2-2H12.8A4,4,0,0,0,9.807,8.343Z"/><path fill="#4c46c8" d="M27,6H12.8A5.009,5.009,0,0,0,9.059,7.678L3.434,14.007a3,3,0,0,0,0,3.986l5.625,6.329A5.009,5.009,0,0,0,12.8,26H27a3,3,0,0,0,3-3V9A3,3,0,0,0,27,6Zm1,17a1,1,0,0,1-1,1H12.8a3,3,0,0,1-2.242-1.007L4.928,16.664a1,1,0,0,1,0-1.328l5.625-6.329A3,3,0,0,1,12.8,8H27a1,1,0,0,1,1,1Z"/><path fill="#4c46c8" d="M23.707,12.293a1,1,0,0,0-1.414,0L20,14.586l-2.293-2.293a1,1,0,0,0-1.414,1.414L18.586,16l-2.293,2.293a1,1,0,1,0,1.414,1.414L20,17.414l2.293,2.293a1,1,0,0,0,1.414-1.414L21.414,16l2.293-2.293A1,1,0,0,0,23.707,12.293Z"/></g></svg>