<svg xmlns="http://www.w3.org/2000/svg" enable-background="new 0 0 32 32" viewBox="0 0 32 32"><path fill="#a9d2ed" d="M28.17,13c0,0.8-0.31,1.55-0.88,2.12l-1.58,1.59l-8,8C17.52,24.89,17.27,25,17,25H9c-0.27,0-0.52-0.11-0.71-0.29l-3.58-3.59c-1.17-1.17-1.17-3.07,0-4.24L9.8,11.8l5.5-5.5l1.58-1.59c1.17-1.17,3.07-1.17,4.24,0l6.17,6.17C27.86,11.45,28.17,12.2,28.17,13z"/><path fill="#36a0e8" d="M27.5,27h-23C4.2239,27,4,27.2239,4,27.5v1C4,28.7761,4.2239,29,4.5,29h23c0.2761,0,0.5-0.2239,0.5-0.5v-1C28,27.2239,27.7761,27,27.5,27z"/><rect width="7.778" height="14.722" x="13.866" y="6.894" fill="#70b7e8" transform="rotate(-45.001 17.755 14.255)"/></svg>